<svg xmlns="http://www.w3.org/2000/svg" width="1962.667" height="1962.667" preserveAspectRatio="xMidYMid meet" version="1.0" viewBox="0 0 1472 1472"><metadata>Created by potrace 1.14, written by Peter Selinger 2001-2017</metadata><g fill="#000" stroke="none"><path d="M10979 11416 c-2 -2 -33 -7 -69 -10 -118 -10 -165 -15 -190 -20 -14 -2 -43 -7 -65 -10 -196 -29 -456 -98 -685 -183 -123 -46 -138 -52 -315 -139 -167 -82 -256 -132 -267 -148 -4 -6 -8 -8 -8 -4 0 7 -58 -28 -86 -51 -5 -4 -21 -14 -34 -21 -13 -7 -33 -21 -44 -31 -11 -11 -24 -19 -29 -19 -4 0 -14 -6 -22 -12 -7 -7 -25 -22 -41 -33 -57 -41 -129 -99 -132 -107 -2 -4 -8 -8 -13 -8 -6 0 -20 -10 -33 -22 -13 -13 -50 -46 -82 -74 -103 -90 -265 -255 -364 -374 -30 -36 -58 -67 -61 -70 -7 -6 -157 -208 -179 -240 -8 -12 -27 -40 -42 -61 -16 -21 -28 -43 -28 -49 0 -5 -4 -10 -10 -10 -5 0 -10 -4 -10 -9 0 -5 -22 -45 -48 -88 -45 -73 -211 -394 -213 -410 0 -5 -7 -24 -16 -43 -30 -68 -41 -96 -71 -180 -37 -105 -86 -253 -85 -260 0 -3 -4 -16 -9 -30 -5 -14 -11 -32 -13 -40 -2 -8 -11 -44 -20 -80 -9 -36 -19 -74 -21 -85 -2 -11 -8 -40 -14 -65 -10 -47 -11 -53 -35 -185 -15 -79 -18 -103 -30 -200 -3 -27 -8 -64 -10 -81 -3 -17 -7 -57 -10 -90 -2 -32 -7 -97 -11 -144 -10 -114 -9 -652 1 -765 5 -49 9 -107 9 -127 1 -21 3 -38 6 -38 3 0 5 -12 6 -27 1 -45 12 -147 17 -163 3 -8 8 -35 11 -60 3 -25 7 -54 9 -65 6 -28 16 -84 22 -126 5 -28 46 -197 99 -399 16 -60 129 -373 137 -380 4 -3 10 -16 14 -30 8 -27 136 -302 145 -310 3 -3 12 -18 20 -35 27 -53 154 -260 162 -263 4 -2 8 -8 8 -13 0 -8 140 -204 182 -254 220 -266 396 -443 601 -605 11 -8 25 -21 32 -28 8 -6 18 -12 24 -12 6 0 11 -3 11 -7 0 -5 17 -19 38 -33 20 -14 39 -27 42 -30 27 -31 248 -167 416 -256 146 -79 460 -211 544 -229 3 -1 50 -15 105 -32 55 -17 111 -33 125 -36 14 -3 34 -8 45 -10 59 -15 157 -36 195 -42 63 -9 118 -18 135 -22 20 -4 33 -6 185 -21 97 -9 704 -9 795 1 39 4 95 10 125 13 50 4 111 12 150 19 8 2 35 6 60 9 25 3 55 8 66 10 12 2 37 7 55 10 19 3 45 8 59 12 14 3 33 7 43 7 9 1 17 5 17 10 0 4 4 6 8 3 8 -5 108 17 142 31 8 3 18 6 22 5 3 -1 38 9 77 23 39 13 71 21 71 18 0 -3 7 1 17 8 9 8 18 13 19 12 4 -3 6 -2 99 32 39 15 80 29 93 32 12 3 22 9 22 14 0 5 7 9 15 9 20 0 210 94 320 158 126 74 129 76 135 83 3 3 21 15 40 27 20 11 47 30 59 42 13 11 27 20 30 20 3 0 20 13 37 28 17 15 45 37 61 50 67 51 102 82 207 187 146 145 210 216 315 355 83 109 221 312 221 325 0 3 11 22 23 43 32 50 117 214 117 225 0 5 9 22 21 38 11 16 17 29 13 29 -3 0 -2 6 3 13 5 6 20 39 33 72 13 33 26 65 30 70 3 6 26 71 49 145 24 74 46 142 49 150 7 20 10 31 16 56 2 12 9 38 14 58 6 20 8 36 6 36 -3 0 0 8 5 18 5 10 12 38 16 62 4 25 8 47 10 50 2 4 7 29 10 56 3 27 8 60 11 72 3 17 1 23 -8 19 -7 -2 -21 0 -30 5 -10 5 -18 5 -18 1 0 -4 -11 -8 -25 -8 -14 0 -25 4 -25 8 0 4 -8 3 -18 -2 -11 -6 -24 -6 -35 0 -9 6 -17 6 -17 2 0 -4 -11 -8 -25 -8 -14 0 -25 3 -25 7 0 4 -11 3 -25 -2 -13 -5 -27 -5 -30 -1 -3 5 -21 5 -40 1 -21 -5 -35 -4 -35 1 0 6 -7 6 -17 1 -10 -5 -27 -6 -38 -2 -11 4 -29 4 -40 0 -11 -4 -29 -4 -40 0 -11 4 -29 4 -41 0 -11 -5 -28 -4 -37 1 -9 6 -17 6 -17 2 0 -4 -20 -8 -45 -8 -25 0 -45 4 -45 8 0 4 -8 4 -17 -1 -10 -5 -27 -6 -38 -2 -11 4 -29 4 -40 0 -11 -4 -29 -4 -40 0 -11 4 -29 4 -41 0 -11 -5 -28 -4 -37 1 -9 6 -17 6 -17 1 0 -9 -78 -8 -87 1 -3 3 -15 2 -27 -2 -11 -5 -30 -5 -41 -1 -11 4 -29 4 -41 0 -11 -5 -28 -4 -37 1 -9 6 -17 6 -17 2 0 -4 -11 -8 -25 -8 -14 0 -25 4 -25 8 0 4 -8 3 -18 -2 -10 -5 -24 -6 -33 -1 -8 5 -21 5 -29 0 -8 -5 -22 -5 -32 1 -10 5 -18 6 -18 2 0 -4 -11 -8 -25 -8 -14 0 -25 4 -25 8 0 4 -8 3 -18 -2 -11 -6 -24 -6 -35 0 -9 6 -17 6 -17 2 0 -4 -11 -8 -25 -8 -14 0 -25 3 -25 7 0 4 -11 3 -25 -2 -13 -5 -27 -5 -30 -1 -3 5 -21 5 -40 1 -21 -5 -35 -4 -35 1 0 6 -7 6 -17 1 -10 -5 -27 -6 -38 -2 -11 4 -29 4 -40 0 -11 -4 -29 -4 -40 0 -11 4 -29 4 -41 0 -11 -5 -28 -4 -37 1 -9 6 -17 6 -17 1 0 -4 -21 -7 -47 -5 -27 3 -55 4 -63 4 -8 -1 -27 -1 -41 -2 -23 0 -29 -9 -54 -72 -40 -103 -107 -237 -154 -308 -23 -34 -41 -63 -41 -66 0 -3 -21 -30 -47 -61 -104 -122 -217 -222 -318 -278 -11 -6 -41 -23 -66 -37 -26 -14 -49 -23 -53 -20 -3 4 -6 2 -6 -4 0 -6 -12 -14 -27 -19 -36 -10 -33 -9 -64 -22 -24 -9 -110 -35 -116 -34 -2 1 -17 -4 -35 -9 -18 -5 -48 -12 -67 -15 -18 -3 -43 -8 -55 -10 -71 -15 -378 -22 -476 -10 -119 14 -269 50 -355 85 -59 24 -81 34 -95 42 -8 5 -22 12 -30 15 -48 18 -113 54 -137 77 -13 11 -23 16 -23 11 0 -5 -4 -4 -8 1 -4 6 -23 22 -42 35 -61 42 -82 62 -185 167 -99 101 -155 165 -155 177 0 3 -18 32 -40 63 -22 32 -40 62 -40 67 0 5 -6 17 -14 25 -19 21 -126 231 -126 247 0 7 -3 14 -7 16 -5 2 -19 30 -31 63 -13 33 -28 69 -33 80 -11 26 -59 171 -69 210 -5 17 -15 55 -23 85 -8 30 -17 69 -20 87 -3 17 -7 35 -10 40 -3 4 -8 32 -12 62 -4 30 -9 63 -12 75 -2 12 -6 37 -7 56 -2 19 -7 71 -12 115 -16 163 -9 669 12 815 3 19 7 49 9 65 4 28 9 56 20 115 3 14 8 36 10 50 3 14 12 50 20 80 8 30 17 64 20 74 16 66 91 277 127 356 224 495 463 752 870 935 20 9 42 18 50 19 7 2 21 6 31 9 9 4 25 10 35 14 21 7 42 13 62 17 8 2 33 8 55 14 92 25 202 35 365 35 138 -1 250 -10 335 -28 17 -3 43 -8 59 -11 81 -15 273 -90 351 -137 39 -24 110 -71 115 -76 3 -4 23 -19 45 -36 47 -35 116 -104 165 -165 19 -24 43 -51 53 -62 9 -10 17 -22 17 -26 0 -5 8 -17 18 -28 36 -43 192 -351 192 -382 0 -5 461 -8 1025 -8 l1024 0 -5 35 c-2 20 -7 47 -10 61 -3 14 -8 38 -10 55 -4 36 -38 179 -60 255 -24 84 -64 213 -74 235 -10 25 -23 57 -25 68 -2 4 -4 10 -5 15 -1 4 -2 10 -1 15 0 4 -4 7 -9 7 -5 0 -9 3 -8 8 1 4 -3 17 -10 30 -7 12 -10 22 -8 22 3 0 -5 21 -18 48 -13 26 -43 88 -67 137 -58 120 -186 341 -216 373 -7 7 -13 17 -13 22 0 5 -6 15 -13 22 -7 7 -37 47 -67 88 -30 41 -62 82 -72 91 -10 9 -18 20 -18 23 0 4 -6 13 -12 21 -7 7 -42 46 -78 86 -73 83 -225 234 -296 294 -25 22 -51 45 -58 50 -6 6 -38 30 -71 55 -33 25 -62 48 -65 51 -3 3 -9 8 -15 10 -5 2 -56 34 -112 72 -119 79 -425 238 -508 263 -14 5 -197 70 -215 77 -21 8 -122 35 -200 53 -36 9 -72 18 -80 21 -8 3 -24 8 -35 10 -11 2 -42 7 -70 13 -110 21 -115 22 -210 35 -22 3 -51 7 -64 10 -13 2 -58 7 -100 10 -42 3 -88 8 -101 11 -29 7 -734 17 -741 10z" transform="translate(0.000000,1472.000000) scale(0.100000,-0.100000)"/><path d="M32 11292 l-32 -3 0 -3930 0 -3929 28 -1 c144 -3 3167 2 3227 6 150 8 285 19 375 30 19 3 55 7 80 10 25 3 70 10 100 15 30 5 71 12 90 15 36 6 130 23 165 30 22 5 251 63 275 70 8 2 47 13 85 25 39 12 75 23 80 24 6 2 17 6 25 9 45 17 116 42 120 43 3 0 22 8 44 17 21 9 40 17 43 17 2 0 29 11 59 25 30 14 57 25 59 25 7 0 188 91 257 128 92 50 208 122 281 174 37 26 72 48 77 48 6 0 10 3 10 8 0 4 17 18 37 32 20 14 41 30 47 35 6 6 36 30 66 55 87 71 95 78 234 215 72 72 156 159 186 195 30 36 57 67 60 70 3 3 25 32 50 65 44 58 51 67 77 99 7 8 13 19 13 24 0 5 9 17 20 27 11 10 20 24 20 31 0 7 3 14 8 16 10 4 62 82 62 93 0 5 6 16 14 24 8 9 29 43 47 76 18 33 35 62 38 65 5 4 92 177 96 190 3 9 22 55 43 100 18 39 36 83 77 185 4 11 9 25 10 30 2 6 17 51 34 102 46 136 123 441 136 540 2 16 4 28 5 28 2 0 8 35 15 85 3 25 8 56 10 70 6 32 14 90 20 160 3 30 8 71 10 90 22 186 27 930 5 930 -3 0 -6 33 -7 73 -1 39 -4 86 -6 102 -3 17 -8 59 -12 95 -4 36 -9 74 -11 85 -2 11 -6 36 -9 55 -3 19 -12 71 -20 115 -9 44 -17 91 -19 105 -2 14 -6 32 -9 40 -3 8 -15 53 -26 100 -32 137 -49 197 -98 335 -25 72 -47 140 -50 153 -3 12 -10 22 -16 22 -6 0 -8 3 -4 6 3 3 -10 40 -28 82 -18 43 -36 84 -39 92 -27 69 -213 402 -228 408 -5 2 -6 8 -2 13 3 5 1 9 -5 9 -6 0 -17 15 -26 33 -8 17 -24 43 -35 57 -11 14 -43 57 -72 95 -29 39 -55 72 -60 73 -4 2 -8 8 -8 13 0 5 -8 17 -17 27 -10 10 -40 45 -68 78 -60 72 -293 304 -360 359 -27 22 -60 50 -72 63 -13 12 -26 22 -30 22 -3 0 -26 17 -52 38 -25 20 -68 53 -96 72 -27 18 -52 36 -55 40 -3 3 -17 11 -32 19 -16 8 -28 18 -28 23 0 4 -5 8 -10 8 -6 0 -47 23 -91 50 -86 53 -399 213 -399 204 0 -3 -15 3 -33 14 -17 12 -35 21 -40 21 -4 0 -23 8 -43 16 -20 8 -40 15 -44 15 -5 0 -30 9 -57 21 -26 11 -55 22 -63 24 -8 2 -34 10 -58 19 -23 8 -43 15 -45 14 -1 0 -33 9 -72 20 -73 22 -210 57 -257 66 -30 6 -58 13 -98 21 -14 4 -38 8 -55 11 -16 2 -68 10 -114 18 -46 8 -87 15 -90 14 -3 0 -8 1 -11 2 -11 4 -39 8 -105 14 -39 4 -84 9 -101 11 -44 6 -187 15 -329 21 -129 6 -3119 11 -3173 6z m2973 -1771 c0 -1 34 -4 75 -5 71 -4 101 -7 210 -22 25 -4 53 -6 63 -6 9 0 17 -4 17 -9 0 -6 3 -8 8 -5 4 2 37 -2 72 -11 36 -8 70 -16 75 -17 6 -1 37 -11 70 -21 33 -10 63 -19 67 -19 3 -1 10 -4 14 -8 4 -5 16 -8 26 -8 10 0 26 -4 36 -10 28 -16 152 -70 155 -67 1 1 16 -7 32 -19 17 -11 37 -23 45 -26 22 -9 181 -118 230 -158 99 -83 182 -170 297 -314 72 -89 173 -277 237 -439 39 -98 98 -299 111 -372 22 -136 34 -216 33 -224 0 -3 1 -8 2 -11 2 -6 6 -51 14 -160 7 -93 8 -351 1 -445 -11 -151 -14 -191 -19 -215 -3 -13 -8 -40 -11 -60 -3 -20 -7 -45 -9 -57 -3 -11 -7 -38 -10 -59 -4 -21 -14 -66 -22 -99 -9 -33 -17 -67 -19 -75 -7 -31 -56 -176 -70 -207 -8 -17 -15 -34 -15 -38 0 -6 -67 -144 -109 -224 -29 -56 -149 -225 -191 -272 -144 -156 -220 -224 -353 -313 -79 -53 -245 -138 -322 -166 -33 -12 -67 -25 -76 -29 -19 -11 -185 -56 -259 -70 -89 -18 -93 -19 -155 -26 -33 -4 -69 -9 -80 -11 -46 -10 -317 -16 -721 -17 l-431 -2 0 2155 c0 1185 1 2157 2 2160 3 4 980 5 980 1z" transform="translate(0.000000,1472.000000) scale(0.100000,-0.100000)"/></g></svg>