<svg xmlns="http://www.w3.org/2000/svg" width="50" height="50" viewBox="0 0 50 50">
  <path id="Blob" d="M-46.689-76.785c4.163,1.867,7.286,6.337,8.565,11.143,1.249,4.775.625,9.857,0,15-.654,5.143-1.309,10.316-4.074,13.714-2.736,3.4-7.584,4.959-12.49,6.52-4.877,1.561-9.844,3.061-14.334,2.082-4.461-.98-8.476-4.439-11.955-8.418-3.45-4.01-6.394-8.571-6.424-13.163-.059-4.561,2.736-9.214,5.145-13.806,2.379-4.592,4.312-9.184,7.732-11.418,3.39-2.235,8.268-2.143,13.323-2.48C-56.146-77.918-50.882-78.652-46.689-76.785Z" transform="translate(87.403 78.014)" fill="#0a192f"/>
</svg>
