<svg xmlns="http://www.w3.org/2000/svg" width="20" height="18" viewBox="0 0 20 18">
  <path id="Email_icon" d="M5.8,18A5.833,5.833,0,0,1,0,12.155V5.845A5.824,5.824,0,0,1,5.8,0h8.4A5.842,5.842,0,0,1,20,5.845V7.307a.71.71,0,0,1-.707.713L19.284,8a.705.705,0,0,1-.5-.209.716.716,0,0,1-.207-.5V5.845A4.439,4.439,0,0,0,14.2,1.435H5.8A4.44,4.44,0,0,0,1.424,5.845v6.309A4.44,4.44,0,0,0,5.8,16.565h8.4a4.439,4.439,0,0,0,4.379-4.411.716.716,0,0,1,1.424,0A5.842,5.842,0,0,1,14.2,18ZM8.05,9.98,3.928,6.656a.725.725,0,0,1-.106-1.007.7.7,0,0,1,.991-.107L8.969,8.858a1.425,1.425,0,0,0,1.769,0l4.113-3.316h.009a.711.711,0,1,1,.885,1.114L11.632,9.98a2.84,2.84,0,0,1-3.582,0Z" fill="#fff"/>
</svg>
